<svg xmlns="http://www.w3.org/2000/svg" xmlns:xlink="http://www.w3.org/1999/xlink" width="500" zoomAndPan="magnify" viewBox="0 0 375 374.999991" height="500" preserveAspectRatio="xMidYMid meet" version="1.0"><defs><filter x="0%" y="0%" width="100%" height="100%" id="45ddfff093"><feColorMatrix values="0 0 0 0 1 0 0 0 0 1 0 0 0 0 1 0 0 0 1 0" color-interpolation-filters="sRGB"/></filter><clipPath id="ed40a15f92"><path d="M 24.921875 24.921875 L 350.078125 24.921875 L 350.078125 350.078125 L 24.921875 350.078125 Z M 24.921875 24.921875 " clip-rule="nonzero"/></clipPath><clipPath id="8185087537"><path d="M 187.5 24.921875 C 97.710938 24.921875 24.921875 97.710938 24.921875 187.5 C 24.921875 277.289062 97.710938 350.078125 187.5 350.078125 C 277.289062 350.078125 350.078125 277.289062 350.078125 187.5 C 350.078125 97.710938 277.289062 24.921875 187.5 24.921875 " clip-rule="nonzero"/></clipPath><mask id="3516ba8933"><g filter="url(#45ddfff093)"><rect x="-37.5" width="450" fill="#000000" y="-37.499999" height="449.999989" fill-opacity="0.8588"/></g></mask><clipPath id="2590c5dba9"><path d="M 92.074219 0.238281 L 140.074219 0.238281 L 140.074219 230.488281 L 92.074219 230.488281 Z M 92.074219 0.238281 " clip-rule="nonzero"/></clipPath><clipPath id="9c45daa3e6"><rect x="0" width="231" y="0" height="231"/></clipPath><clipPath id="e908186d04"><path d="M 72.238281 115.019531 L 302.488281 115.019531 L 302.488281 163.019531 L 72.238281 163.019531 Z M 72.238281 115.019531 " clip-rule="nonzero"/></clipPath><mask id="0b18bf702f"><g filter="url(#45ddfff093)"><rect x="-37.5" width="450" fill="#000000" y="-37.499999" height="449.999989" fill-opacity="0.7569"/></g></mask><clipPath id="568ff134a2"><path d="M 92.359375 0.238281 L 140.359375 0.238281 L 140.359375 230.488281 L 92.359375 230.488281 Z M 92.359375 0.238281 " clip-rule="nonzero"/></clipPath><clipPath id="b456fef2f6"><rect x="0" width="232" y="0" height="231"/></clipPath><mask id="c2348173f4"><g filter="url(#45ddfff093)"><rect x="-37.5" width="450" fill="#000000" y="-37.499999" height="449.999989" fill-opacity="0.7373"/></g></mask><clipPath id="b828b1c635"><path d="M 0.238281 91.734375 L 230.488281 91.734375 L 230.488281 139.734375 L 0.238281 139.734375 Z M 0.238281 91.734375 " clip-rule="nonzero"/></clipPath><clipPath id="e53e1cd2f0"><rect x="0" width="231" y="0" height="232"/></clipPath></defs><g clip-path="url(#ed40a15f92)"><g clip-path="url(#8185087537)"><path fill="#231e1c" d="M 24.921875 24.921875 L 350.078125 24.921875 L 350.078125 350.078125 L 24.921875 350.078125 Z M 24.921875 24.921875 " fill-opacity="1" fill-rule="nonzero"/></g></g><g mask="url(#3516ba8933)"><g transform="matrix(1, 0, 0, 1, 117, 72)"><g clip-path="url(#9c45daa3e6)"><g clip-path="url(#2590c5dba9)"><path fill="#a7e66e" d="M 230.929688 230.488281 L 0.679688 230.488281 L 0.679688 0.238281 L 230.929688 0.238281 Z M 230.929688 230.488281 " fill-opacity="1" fill-rule="nonzero"/></g></g></g></g><g clip-path="url(#e908186d04)"><path fill="#ffffff" d="M 302.488281 24.164062 L 302.488281 254.414062 L 72.238281 254.414062 L 72.238281 24.164062 Z M 302.488281 24.164062 " fill-opacity="1" fill-rule="nonzero"/></g><g mask="url(#0b18bf702f)"><g transform="matrix(1, 0, 0, 1, 23, 72)"><g clip-path="url(#b456fef2f6)"><g clip-path="url(#568ff134a2)"><path fill="#a7e66e" d="M 231.214844 230.488281 L 0.964844 230.488281 L 0.964844 0.238281 L 231.214844 0.238281 Z M 231.214844 230.488281 " fill-opacity="1" fill-rule="nonzero"/></g></g></g></g><g mask="url(#c2348173f4)"><g transform="matrix(1, 0, 0, 1, 72, 117)"><g clip-path="url(#e53e1cd2f0)"><g clip-path="url(#b828b1c635)"><path fill="#ffffff" d="M 230.488281 0.878906 L 230.488281 231.128906 L 0.238281 231.128906 L 0.238281 0.878906 Z M 230.488281 0.878906 " fill-opacity="1" fill-rule="nonzero"/></g></g></g></g></svg>